<svg width="160" height="48" viewBox="0 0 160 48" fill="none" xmlns="http://www.w3.org/2000/svg">
<rect width="160" height="48" rx="8" fill="#0B36DB"/>
<path d="M25.504 30V18.8H30.4C31.616 18.8 32.6827 19.0347 33.6 19.504C34.5173 19.9733 35.232 20.624 35.744 21.456C36.256 22.288 36.512 23.2693 36.512 24.4C36.512 25.52 36.256 26.5013 35.744 27.344C35.232 28.176 34.5173 28.8267 33.6 29.296C32.6827 29.7653 31.616 30 30.4 30H25.504ZM27.584 28.24H30.304C31.1467 28.24 31.872 28.08 32.48 27.76C33.0987 27.44 33.5733 26.992 33.904 26.416C34.2453 25.84 34.416 25.168 34.416 24.4C34.416 23.6213 34.2453 22.9493 33.904 22.384C33.5733 21.808 33.0987 21.36 32.48 21.04C31.872 20.72 31.1467 20.56 30.304 20.56H27.584V28.24ZM43.7948 30V28.272L43.6828 27.904V24.88C43.6828 24.2933 43.5068 23.84 43.1548 23.52C42.8028 23.1893 42.2694 23.024 41.5548 23.024C41.0748 23.024 40.6001 23.0987 40.1308 23.248C39.6721 23.3973 39.2828 23.6053 38.9628 23.872L38.1788 22.416C38.6374 22.064 39.1814 21.8027 39.8108 21.632C40.4508 21.4507 41.1121 21.36 41.7948 21.36C43.0321 21.36 43.9868 21.6587 44.6588 22.256C45.3414 22.8427 45.6828 23.7547 45.6828 24.992V30H43.7948ZM41.1068 30.112C40.4668 30.112 39.9068 30.0053 39.4268 29.792C38.9468 29.568 38.5734 29.264 38.3068 28.88C38.0508 28.4853 37.9228 28.0427 37.9228 27.552C37.9228 27.072 38.0348 26.64 38.2588 26.256C38.4934 25.872 38.8721 25.568 39.3948 25.344C39.9174 25.12 40.6108 25.008 41.4748 25.008H43.9548V26.336H41.6188C40.9361 26.336 40.4774 26.448 40.2428 26.672C40.0081 26.8853 39.8908 27.152 39.8908 27.472C39.8908 27.8347 40.0348 28.1227 40.3228 28.336C40.6108 28.5493 41.0108 28.656 41.5228 28.656C42.0134 28.656 42.4508 28.544 42.8348 28.32C43.2294 28.096 43.5121 27.7653 43.6828 27.328L44.0188 28.528C43.8268 29.0293 43.4801 29.4187 42.9788 29.696C42.4881 29.9733 41.8641 30.112 41.1068 30.112ZM48.2495 30V18.128H50.2495V30H48.2495ZM56.8905 30.112C55.9412 30.112 55.1092 29.9253 54.3945 29.552C53.6905 29.168 53.1412 28.6453 52.7465 27.984C52.3625 27.3227 52.1705 26.5707 52.1705 25.728C52.1705 24.8747 52.3572 24.1227 52.7305 23.472C53.1145 22.8107 53.6372 22.2933 54.2985 21.92C54.9705 21.5467 55.7332 21.36 56.5865 21.36C57.4185 21.36 58.1598 21.5413 58.8105 21.904C59.4612 22.2667 59.9732 22.7787 60.3465 23.44C60.7198 24.1013 60.9065 24.88 60.9065 25.776C60.9065 25.8613 60.9012 25.9573 60.8905 26.064C60.8905 26.1707 60.8852 26.272 60.8745 26.368H53.7545V25.04H59.8185L59.0345 25.456C59.0452 24.9653 58.9438 24.5333 58.7305 24.16C58.5172 23.7867 58.2238 23.4933 57.8505 23.28C57.4878 23.0667 57.0665 22.96 56.5865 22.96C56.0958 22.96 55.6638 23.0667 55.2905 23.28C54.9278 23.4933 54.6398 23.792 54.4265 24.176C54.2238 24.5493 54.1225 24.992 54.1225 25.504V25.824C54.1225 26.336 54.2398 26.7893 54.4745 27.184C54.7092 27.5787 55.0398 27.8827 55.4665 28.096C55.8932 28.3093 56.3838 28.416 56.9385 28.416C57.4185 28.416 57.8505 28.3413 58.2345 28.192C58.6185 28.0427 58.9598 27.808 59.2585 27.488L60.3305 28.72C59.9465 29.168 59.4612 29.5147 58.8745 29.76C58.2985 29.9947 57.6372 30.112 56.8905 30.112ZM61.9476 33.216C61.5743 33.216 61.2223 33.1733 60.8916 33.088C60.5503 33.0133 60.2623 32.8907 60.0276 32.72L60.6036 31.232C60.913 31.456 61.3023 31.568 61.7716 31.568C62.1343 31.568 62.417 31.4507 62.6196 31.216C62.8223 30.992 62.9236 30.656 62.9236 30.208V21.456H64.9236V30.16C64.9236 31.0987 64.6623 31.84 64.1396 32.384C63.6276 32.9387 62.897 33.216 61.9476 33.216ZM63.9156 20.048C63.5423 20.048 63.233 19.9307 62.9876 19.696C62.753 19.4613 62.6356 19.1787 62.6356 18.848C62.6356 18.5067 62.753 18.224 62.9876 18C63.233 17.7653 63.5423 17.648 63.9156 17.648C64.289 17.648 64.593 17.76 64.8276 17.984C65.073 18.1973 65.1956 18.4693 65.1956 18.8C65.1956 19.152 65.0783 19.4507 64.8436 19.696C64.609 19.9307 64.2996 20.048 63.9156 20.048Z" fill="white"/>
<path d="M136 24.0001C136 24.2615 135.89 24.5108 135.697 24.6872L130.266 29.6527C129.887 29.9997 129.298 29.9733 128.951 29.5938C128.604 29.2143 128.63 28.6254 129.01 28.2785L132.671 24.9311L118.931 24.9311C118.417 24.9311 118 24.5143 118 24.0001C118 23.4859 118.417 23.069 118.931 23.069L132.671 23.069L129.01 19.7217C128.63 19.3747 128.604 18.7858 128.951 18.4063C129.298 18.0268 129.887 18.0005 130.266 18.3474L135.697 23.3129C135.89 23.4893 136 23.7387 136 24.0001Z" fill="white"/>
</svg>
