<svg width="160" height="48" viewBox="0 0 160 48" fill="none" xmlns="http://www.w3.org/2000/svg">
<rect width="160" height="48" rx="24" fill="#0B36DB"/>
<path d="M43.004 30V18.8H47.9C49.116 18.8 50.1827 19.0347 51.1 19.504C52.0173 19.9733 52.732 20.624 53.244 21.456C53.756 22.288 54.012 23.2693 54.012 24.4C54.012 25.52 53.756 26.5013 53.244 27.344C52.732 28.176 52.0173 28.8267 51.1 29.296C50.1827 29.7653 49.116 30 47.9 30H43.004ZM45.084 28.24H47.804C48.6467 28.24 49.372 28.08 49.98 27.76C50.5987 27.44 51.0733 26.992 51.404 26.416C51.7453 25.84 51.916 25.168 51.916 24.4C51.916 23.6213 51.7453 22.9493 51.404 22.384C51.0733 21.808 50.5987 21.36 49.98 21.04C49.372 20.72 48.6467 20.56 47.804 20.56H45.084V28.24ZM61.2948 30V28.272L61.1828 27.904V24.88C61.1828 24.2933 61.0068 23.84 60.6548 23.52C60.3028 23.1893 59.7694 23.024 59.0548 23.024C58.5748 23.024 58.1001 23.0987 57.6308 23.248C57.1721 23.3973 56.7828 23.6053 56.4628 23.872L55.6788 22.416C56.1374 22.064 56.6814 21.8027 57.3108 21.632C57.9508 21.4507 58.6121 21.36 59.2948 21.36C60.5321 21.36 61.4868 21.6587 62.1588 22.256C62.8414 22.8427 63.1828 23.7547 63.1828 24.992V30H61.2948ZM58.6068 30.112C57.9668 30.112 57.4068 30.0053 56.9268 29.792C56.4468 29.568 56.0734 29.264 55.8068 28.88C55.5508 28.4853 55.4228 28.0427 55.4228 27.552C55.4228 27.072 55.5348 26.64 55.7588 26.256C55.9934 25.872 56.3721 25.568 56.8948 25.344C57.4174 25.12 58.1108 25.008 58.9748 25.008H61.4548V26.336H59.1188C58.4361 26.336 57.9774 26.448 57.7428 26.672C57.5081 26.8853 57.3908 27.152 57.3908 27.472C57.3908 27.8347 57.5348 28.1227 57.8228 28.336C58.1108 28.5493 58.5108 28.656 59.0228 28.656C59.5134 28.656 59.9508 28.544 60.3348 28.32C60.7294 28.096 61.0121 27.7653 61.1828 27.328L61.5188 28.528C61.3268 29.0293 60.9801 29.4187 60.4788 29.696C59.9881 29.9733 59.3641 30.112 58.6068 30.112ZM65.7495 30V18.128H67.7495V30H65.7495ZM74.3905 30.112C73.4412 30.112 72.6092 29.9253 71.8945 29.552C71.1905 29.168 70.6412 28.6453 70.2465 27.984C69.8625 27.3227 69.6705 26.5707 69.6705 25.728C69.6705 24.8747 69.8572 24.1227 70.2305 23.472C70.6145 22.8107 71.1372 22.2933 71.7985 21.92C72.4705 21.5467 73.2332 21.36 74.0865 21.36C74.9185 21.36 75.6598 21.5413 76.3105 21.904C76.9612 22.2667 77.4732 22.7787 77.8465 23.44C78.2198 24.1013 78.4065 24.88 78.4065 25.776C78.4065 25.8613 78.4012 25.9573 78.3905 26.064C78.3905 26.1707 78.3852 26.272 78.3745 26.368H71.2545V25.04H77.3185L76.5345 25.456C76.5452 24.9653 76.4438 24.5333 76.2305 24.16C76.0172 23.7867 75.7238 23.4933 75.3505 23.28C74.9878 23.0667 74.5665 22.96 74.0865 22.96C73.5958 22.96 73.1638 23.0667 72.7905 23.28C72.4278 23.4933 72.1398 23.792 71.9265 24.176C71.7238 24.5493 71.6225 24.992 71.6225 25.504V25.824C71.6225 26.336 71.7398 26.7893 71.9745 27.184C72.2092 27.5787 72.5398 27.8827 72.9665 28.096C73.3932 28.3093 73.8838 28.416 74.4385 28.416C74.9185 28.416 75.3505 28.3413 75.7345 28.192C76.1185 28.0427 76.4598 27.808 76.7585 27.488L77.8305 28.72C77.4465 29.168 76.9612 29.5147 76.3745 29.76C75.7985 29.9947 75.1372 30.112 74.3905 30.112ZM79.4476 33.216C79.0743 33.216 78.7223 33.1733 78.3916 33.088C78.0503 33.0133 77.7623 32.8907 77.5276 32.72L78.1036 31.232C78.413 31.456 78.8023 31.568 79.2716 31.568C79.6343 31.568 79.917 31.4507 80.1196 31.216C80.3223 30.992 80.4236 30.656 80.4236 30.208V21.456H82.4236V30.16C82.4236 31.0987 82.1623 31.84 81.6396 32.384C81.1276 32.9387 80.397 33.216 79.4476 33.216ZM81.4156 20.048C81.0423 20.048 80.733 19.9307 80.4876 19.696C80.253 19.4613 80.1356 19.1787 80.1356 18.848C80.1356 18.5067 80.253 18.224 80.4876 18C80.733 17.7653 81.0423 17.648 81.4156 17.648C81.789 17.648 82.093 17.76 82.3276 17.984C82.573 18.1973 82.6956 18.4693 82.6956 18.8C82.6956 19.152 82.5783 19.4507 82.3436 19.696C82.109 19.9307 81.7996 20.048 81.4156 20.048Z" fill="white"/>
<path d="M118.5 24.0001C118.5 24.2615 118.39 24.5108 118.197 24.6872L112.766 29.6527C112.387 29.9997 111.798 29.9733 111.451 29.5938C111.104 29.2143 111.13 28.6254 111.51 28.2785L115.171 24.9311L101.431 24.9311C100.917 24.9311 100.5 24.5143 100.5 24.0001C100.5 23.4859 100.917 23.069 101.431 23.069L115.171 23.069L111.51 19.7217C111.13 19.3747 111.104 18.7858 111.451 18.4063C111.798 18.0268 112.387 18.0005 112.766 18.3474L118.197 23.3129C118.39 23.4893 118.5 23.7387 118.5 24.0001Z" fill="white"/>
</svg>
