<svg width="19" height="12" viewBox="0 0 19 12" fill="none" xmlns="http://www.w3.org/2000/svg">
<path d="M18.5 6.00008C18.5 6.26147 18.3901 6.51082 18.1972 6.68721L12.7662 11.6527C12.3867 11.9997 11.7978 11.9733 11.4508 11.5938C11.1038 11.2143 11.1302 10.6254 11.5097 10.2785L15.1709 6.93111L1.43103 6.93111C0.916839 6.93111 0.5 6.51427 0.5 6.00007C0.5 5.48588 0.916839 5.06904 1.43103 5.06904L15.1709 5.06904L11.5097 1.72169C11.1302 1.37472 11.1038 0.785814 11.4508 0.406322C11.7978 0.0268306 12.3867 0.000461663 12.7662 0.347425L18.1972 5.31294C18.3901 5.48933 18.5 5.73868 18.5 6.00008Z" fill="white"/>
</svg>
