<svg width="191" height="48" viewBox="0 0 191 48" fill="none" xmlns="http://www.w3.org/2000/svg">
<path d="M30.32 30.16C28.784 30.16 27.5787 29.728 26.704 28.864C25.84 28 25.408 26.752 25.408 25.12V18.8H27.488V25.04C27.488 26.192 27.7333 27.0293 28.224 27.552C28.7253 28.0747 29.4293 28.336 30.336 28.336C31.2427 28.336 31.9413 28.0747 32.432 27.552C32.9227 27.0293 33.168 26.192 33.168 25.04V18.8H35.216V25.12C35.216 26.752 34.7787 28 33.904 28.864C33.04 29.728 31.8453 30.16 30.32 30.16ZM37.233 30V28.736L42.497 22.368L42.865 23.056H37.329V21.456H44.465V22.72L39.201 29.088L38.801 28.4H44.609V30H37.233ZM50.0686 30.112C49.3433 30.112 48.7033 29.9787 48.1486 29.712C47.594 29.4347 47.162 29.0187 46.8526 28.464C46.5433 27.8987 46.3886 27.1893 46.3886 26.336V21.456H48.3886V26.064C48.3886 26.832 48.5593 27.408 48.9006 27.792C49.2526 28.1653 49.7486 28.352 50.3886 28.352C50.858 28.352 51.2633 28.256 51.6046 28.064C51.9566 27.872 52.2286 27.584 52.4206 27.2C52.6233 26.816 52.7246 26.3413 52.7246 25.776V21.456H54.7246V30H52.8206V27.696L53.1566 28.4C52.8686 28.9547 52.4473 29.3813 51.8926 29.68C51.338 29.968 50.73 30.112 50.0686 30.112ZM62.0793 30.112C61.3859 30.112 60.7513 29.952 60.1753 29.632C59.6099 29.312 59.1566 28.832 58.8153 28.192C58.4846 27.5413 58.3193 26.72 58.3193 25.728C58.3193 24.7253 58.4793 23.904 58.7993 23.264C59.1299 22.624 59.5779 22.1493 60.1432 21.84C60.7086 21.52 61.3539 21.36 62.0793 21.36C62.9219 21.36 63.6633 21.5413 64.3033 21.904C64.9539 22.2667 65.4659 22.7733 65.8393 23.424C66.2233 24.0747 66.4153 24.8427 66.4153 25.728C66.4153 26.6133 66.2233 27.3867 65.8393 28.048C65.4659 28.6987 64.9539 29.2053 64.3033 29.568C63.6633 29.9307 62.9219 30.112 62.0793 30.112ZM57.3433 33.104V21.456H59.2473V23.472L59.1833 25.744L59.3433 28.016V33.104H57.3433ZM61.8553 28.4C62.3353 28.4 62.7619 28.2933 63.1353 28.08C63.5193 27.8667 63.8233 27.5573 64.0473 27.152C64.2713 26.7467 64.3833 26.272 64.3833 25.728C64.3833 25.1733 64.2713 24.6987 64.0473 24.304C63.8233 23.8987 63.5193 23.5893 63.1353 23.376C62.7619 23.1627 62.3353 23.056 61.8553 23.056C61.3753 23.056 60.9433 23.1627 60.5593 23.376C60.1753 23.5893 59.8713 23.8987 59.6473 24.304C59.4233 24.6987 59.3113 25.1733 59.3113 25.728C59.3113 26.272 59.4233 26.7467 59.6473 27.152C59.8713 27.5573 60.1753 27.8667 60.5593 28.08C60.9433 28.2933 61.3753 28.4 61.8553 28.4ZM72.328 30.112C71.3787 30.112 70.5467 29.9253 69.832 29.552C69.128 29.168 68.5787 28.6453 68.184 27.984C67.8 27.3227 67.608 26.5707 67.608 25.728C67.608 24.8747 67.7947 24.1227 68.168 23.472C68.552 22.8107 69.0747 22.2933 69.736 21.92C70.408 21.5467 71.1707 21.36 72.024 21.36C72.856 21.36 73.5973 21.5413 74.248 21.904C74.8987 22.2667 75.4107 22.7787 75.784 23.44C76.1573 24.1013 76.344 24.88 76.344 25.776C76.344 25.8613 76.3387 25.9573 76.328 26.064C76.328 26.1707 76.3227 26.272 76.312 26.368H69.192V25.04H75.256L74.472 25.456C74.4827 24.9653 74.3813 24.5333 74.168 24.16C73.9547 23.7867 73.6613 23.4933 73.288 23.28C72.9253 23.0667 72.504 22.96 72.024 22.96C71.5333 22.96 71.1013 23.0667 70.728 23.28C70.3653 23.4933 70.0773 23.792 69.864 24.176C69.6613 24.5493 69.56 24.992 69.56 25.504V25.824C69.56 26.336 69.6773 26.7893 69.912 27.184C70.1467 27.5787 70.4773 27.8827 70.904 28.096C71.3307 28.3093 71.8213 28.416 72.376 28.416C72.856 28.416 73.288 28.3413 73.672 28.192C74.056 28.0427 74.3973 27.808 74.696 27.488L75.768 28.72C75.384 29.168 74.8987 29.5147 74.312 29.76C73.736 29.9947 73.0747 30.112 72.328 30.112ZM78.4251 30V18.128H80.4251V30H78.4251ZM77.4971 26.56L76.6651 25.44L81.3691 21.872L82.1851 23.008L77.4971 26.56ZM88.0663 21.36C88.7489 21.36 89.3569 21.4933 89.8903 21.76C90.4343 22.0267 90.8609 22.4373 91.1703 22.992C91.4796 23.536 91.6343 24.24 91.6343 25.104V30H89.6343V25.36C89.6343 24.6027 89.4529 24.0373 89.0903 23.664C88.7383 23.2907 88.2423 23.104 87.6023 23.104C87.1329 23.104 86.7169 23.2 86.3543 23.392C85.9916 23.584 85.7089 23.872 85.5063 24.256C85.3143 24.6293 85.2183 25.104 85.2183 25.68V30H83.2183V21.456H85.1223V23.76L84.7863 23.056C85.0849 22.512 85.5169 22.096 86.0823 21.808C86.6583 21.5093 87.3196 21.36 88.0663 21.36ZM94.1714 30V21.456H96.1714V30H94.1714ZM95.1794 20.048C94.806 20.048 94.4967 19.9307 94.2514 19.696C94.0167 19.4613 93.8994 19.1787 93.8994 18.848C93.8994 18.5067 94.0167 18.224 94.2514 18C94.4967 17.7653 94.806 17.648 95.1794 17.648C95.5527 17.648 95.8567 17.76 96.0914 17.984C96.3367 18.1973 96.4594 18.4693 96.4594 18.8C96.4594 19.152 96.342 19.4507 96.1074 19.696C95.8727 19.9307 95.5634 20.048 95.1794 20.048ZM97.9164 33.216C97.543 33.216 97.191 33.1733 96.8604 33.088C96.519 33.0133 96.231 32.8907 95.9964 32.72L96.5724 31.232C96.8817 31.456 97.271 31.568 97.7404 31.568C98.103 31.568 98.3857 31.4507 98.5884 31.216C98.791 30.992 98.8924 30.656 98.8924 30.208V21.456H100.892V30.16C100.892 31.0987 100.631 31.84 100.108 32.384C99.5964 32.9387 98.8657 33.216 97.9164 33.216ZM99.8844 20.048C99.511 20.048 99.2017 19.9307 98.9564 19.696C98.7217 19.4613 98.6044 19.1787 98.6044 18.848C98.6044 18.5067 98.7217 18.224 98.9564 18C99.2017 17.7653 99.511 17.648 99.8844 17.648C100.258 17.648 100.562 17.76 100.796 17.984C101.042 18.1973 101.164 18.4693 101.164 18.8C101.164 19.152 101.047 19.4507 100.812 19.696C100.578 19.9307 100.268 20.048 99.8844 20.048ZM112.673 30.112C111.98 30.112 111.345 29.952 110.769 29.632C110.204 29.312 109.75 28.832 109.409 28.192C109.078 27.5413 108.913 26.72 108.913 25.728C108.913 24.7253 109.073 23.904 109.393 23.264C109.724 22.624 110.172 22.1493 110.737 21.84C111.302 21.52 111.948 21.36 112.673 21.36C113.516 21.36 114.257 21.5413 114.897 21.904C115.548 22.2667 116.06 22.7733 116.433 23.424C116.817 24.0747 117.009 24.8427 117.009 25.728C117.009 26.6133 116.817 27.3867 116.433 28.048C116.06 28.6987 115.548 29.2053 114.897 29.568C114.257 29.9307 113.516 30.112 112.673 30.112ZM107.937 33.104V21.456H109.841V23.472L109.777 25.744L109.937 28.016V33.104H107.937ZM112.449 28.4C112.929 28.4 113.356 28.2933 113.729 28.08C114.113 27.8667 114.417 27.5573 114.641 27.152C114.865 26.7467 114.977 26.272 114.977 25.728C114.977 25.1733 114.865 24.6987 114.641 24.304C114.417 23.8987 114.113 23.5893 113.729 23.376C113.356 23.1627 112.929 23.056 112.449 23.056C111.969 23.056 111.537 23.1627 111.153 23.376C110.769 23.5893 110.465 23.8987 110.241 24.304C110.017 24.6987 109.905 25.1733 109.905 25.728C109.905 26.272 110.017 26.7467 110.241 27.152C110.465 27.5573 110.769 27.8667 111.153 28.08C111.537 28.2933 111.969 28.4 112.449 28.4ZM122.746 30.112C121.871 30.112 121.092 29.9253 120.41 29.552C119.727 29.168 119.188 28.6453 118.794 27.984C118.399 27.3227 118.202 26.5707 118.202 25.728C118.202 24.8747 118.399 24.1227 118.794 23.472C119.188 22.8107 119.727 22.2933 120.41 21.92C121.092 21.5467 121.871 21.36 122.746 21.36C123.631 21.36 124.415 21.5467 125.098 21.92C125.791 22.2933 126.33 22.8053 126.714 23.456C127.108 24.1067 127.306 24.864 127.306 25.728C127.306 26.5707 127.108 27.3227 126.714 27.984C126.33 28.6453 125.791 29.168 125.098 29.552C124.415 29.9253 123.631 30.112 122.746 30.112ZM122.746 28.4C123.236 28.4 123.674 28.2933 124.058 28.08C124.442 27.8667 124.74 27.5573 124.954 27.152C125.178 26.7467 125.29 26.272 125.29 25.728C125.29 25.1733 125.178 24.6987 124.954 24.304C124.74 23.8987 124.442 23.5893 124.058 23.376C123.674 23.1627 123.242 23.056 122.762 23.056C122.271 23.056 121.834 23.1627 121.45 23.376C121.076 23.5893 120.778 23.8987 120.554 24.304C120.33 24.6987 120.218 25.1733 120.218 25.728C120.218 26.272 120.33 26.7467 120.554 27.152C120.778 27.5573 121.076 27.8667 121.45 28.08C121.834 28.2933 122.266 28.4 122.746 28.4ZM121.386 20.288L123.546 18.096H125.898L123.114 20.288H121.386ZM128.389 30V28.736L133.653 22.368L134.021 23.056H128.485V21.456H135.621V22.72L130.357 29.088L129.957 28.4H135.765V30H128.389ZM130.725 20.288L132.885 18.096H135.237L132.453 20.288H130.725ZM142.457 21.36C143.14 21.36 143.748 21.4933 144.281 21.76C144.825 22.0267 145.252 22.4373 145.561 22.992C145.87 23.536 146.025 24.24 146.025 25.104V30H144.025V25.36C144.025 24.6027 143.844 24.0373 143.481 23.664C143.129 23.2907 142.633 23.104 141.993 23.104C141.524 23.104 141.108 23.2 140.745 23.392C140.382 23.584 140.1 23.872 139.897 24.256C139.705 24.6293 139.609 25.104 139.609 25.68V30H137.609V21.456H139.513V23.76L139.177 23.056C139.476 22.512 139.908 22.096 140.473 21.808C141.049 21.5093 141.71 21.36 142.457 21.36ZM148.562 30V21.456H150.562V30H148.562ZM149.57 20.048C149.197 20.048 148.887 19.9307 148.642 19.696C148.407 19.4613 148.29 19.1787 148.29 18.848C148.29 18.5067 148.407 18.224 148.642 18C148.887 17.7653 149.197 17.648 149.57 17.648C149.943 17.648 150.247 17.76 150.482 17.984C150.727 18.1973 150.85 18.4693 150.85 18.8C150.85 19.152 150.733 19.4507 150.498 19.696C150.263 19.9307 149.954 20.048 149.57 20.048ZM157.203 30.112C156.254 30.112 155.422 29.9253 154.707 29.552C154.003 29.168 153.454 28.6453 153.059 27.984C152.675 27.3227 152.483 26.5707 152.483 25.728C152.483 24.8747 152.67 24.1227 153.043 23.472C153.427 22.8107 153.95 22.2933 154.611 21.92C155.283 21.5467 156.046 21.36 156.899 21.36C157.731 21.36 158.472 21.5413 159.123 21.904C159.774 22.2667 160.286 22.7787 160.659 23.44C161.032 24.1013 161.219 24.88 161.219 25.776C161.219 25.8613 161.214 25.9573 161.203 26.064C161.203 26.1707 161.198 26.272 161.187 26.368H154.067V25.04H160.131L159.347 25.456C159.358 24.9653 159.256 24.5333 159.043 24.16C158.83 23.7867 158.536 23.4933 158.163 23.28C157.8 23.0667 157.379 22.96 156.899 22.96C156.408 22.96 155.976 23.0667 155.603 23.28C155.24 23.4933 154.952 23.792 154.739 24.176C154.536 24.5493 154.435 24.992 154.435 25.504V25.824C154.435 26.336 154.552 26.7893 154.787 27.184C155.022 27.5787 155.352 27.8827 155.779 28.096C156.206 28.3093 156.696 28.416 157.251 28.416C157.731 28.416 158.163 28.3413 158.547 28.192C158.931 28.0427 159.272 27.808 159.571 27.488L160.643 28.72C160.259 29.168 159.774 29.5147 159.187 29.76C158.611 29.9947 157.95 30.112 157.203 30.112ZM162.26 33.216C161.887 33.216 161.535 33.1733 161.204 33.088C160.863 33.0133 160.575 32.8907 160.34 32.72L160.916 31.232C161.225 31.456 161.615 31.568 162.084 31.568C162.447 31.568 162.729 31.4507 162.932 31.216C163.135 30.992 163.236 30.656 163.236 30.208V21.456H165.236V30.16C165.236 31.0987 164.975 31.84 164.452 32.384C163.94 32.9387 163.209 33.216 162.26 33.216ZM164.228 20.048C163.855 20.048 163.545 19.9307 163.3 19.696C163.065 19.4613 162.948 19.1787 162.948 18.848C162.948 18.5067 163.065 18.224 163.3 18C163.545 17.7653 163.855 17.648 164.228 17.648C164.601 17.648 164.905 17.76 165.14 17.984C165.385 18.1973 165.508 18.4693 165.508 18.8C165.508 19.152 165.391 19.4507 165.156 19.696C164.921 19.9307 164.612 20.048 164.228 20.048Z" fill="#5B5B5B"/>
</svg>
