<svg width="126" height="48" viewBox="0 0 126 48" fill="none" xmlns="http://www.w3.org/2000/svg">
<path d="M2.57747e-07 24.0001C2.69173e-07 24.2615 0.109885 24.5108 0.302801 24.6872L5.73384 29.6527C6.11333 29.9997 6.70224 29.9733 7.0492 29.5938C7.39616 29.2143 7.36979 28.6254 6.9903 28.2785L3.32914 24.9311L17.069 24.9311C17.5832 24.9311 18 24.5143 18 24.0001C18 23.4859 17.5832 23.069 17.069 23.069L3.32914 23.069L6.9903 19.7217C7.36979 19.3747 7.39616 18.7858 7.0492 18.4063C6.70224 18.0268 6.11333 18.0005 5.73384 18.3474L0.302801 23.3129C0.109884 23.4893 2.46321e-07 23.7387 2.57747e-07 24.0001Z" fill="#0B36DB"/>
<path d="M46.144 30L42.432 18.8H44.592L47.904 28.928H46.832L50.272 18.8H52.192L55.536 28.928H54.496L57.888 18.8H59.872L56.16 30H53.952L50.896 20.864H51.472L48.368 30H46.144ZM63.2958 30.112C62.5811 30.112 61.8931 30.0213 61.2318 29.84C60.5811 29.648 60.0638 29.4187 59.6798 29.152L60.4478 27.632C60.8318 27.8773 61.2904 28.08 61.8238 28.24C62.3571 28.4 62.8904 28.48 63.4238 28.48C64.0531 28.48 64.5064 28.3947 64.7838 28.224C65.0718 28.0533 65.2158 27.824 65.2158 27.536C65.2158 27.3013 65.1198 27.1253 64.9278 27.008C64.7358 26.88 64.4851 26.784 64.1758 26.72C63.8664 26.656 63.5198 26.5973 63.1358 26.544C62.7624 26.4907 62.3838 26.4213 61.9998 26.336C61.6264 26.24 61.2851 26.1067 60.9758 25.936C60.6664 25.7547 60.4158 25.5147 60.2238 25.216C60.0318 24.9173 59.9358 24.5227 59.9358 24.032C59.9358 23.488 60.0904 23.0187 60.3997 22.624C60.7091 22.2187 61.1411 21.9093 61.6957 21.696C62.2611 21.472 62.9278 21.36 63.6958 21.36C64.2718 21.36 64.8531 21.424 65.4398 21.552C66.0264 21.68 66.5118 21.8613 66.8958 22.096L66.1278 23.616C65.7224 23.3707 65.3118 23.2053 64.8958 23.12C64.4904 23.024 64.0851 22.976 63.6798 22.976C63.0718 22.976 62.6184 23.0667 62.3198 23.248C62.0318 23.4293 61.8878 23.6587 61.8878 23.936C61.8878 24.192 61.9838 24.384 62.1758 24.512C62.3678 24.64 62.6184 24.7413 62.9278 24.816C63.2371 24.8907 63.5784 24.9547 63.9518 25.008C64.3358 25.0507 64.7144 25.12 65.0878 25.216C65.4611 25.312 65.8024 25.4453 66.1118 25.616C66.4318 25.776 66.6878 26.0053 66.8798 26.304C67.0718 26.6027 67.1678 26.992 67.1678 27.472C67.1678 28.0053 67.0078 28.4693 66.6878 28.864C66.3784 29.2587 65.9358 29.568 65.3598 29.792C64.7838 30.0053 64.0958 30.112 63.2958 30.112ZM72.1061 30.112C71.1675 30.112 70.4421 29.872 69.9301 29.392C69.4181 28.9013 69.1621 28.1813 69.1621 27.232V19.568H71.1621V27.184C71.1621 27.5893 71.2635 27.904 71.4661 28.128C71.6795 28.352 71.9728 28.464 72.3461 28.464C72.7941 28.464 73.1675 28.3467 73.4661 28.112L74.0261 29.536C73.7915 29.728 73.5035 29.872 73.1621 29.968C72.8208 30.064 72.4688 30.112 72.1061 30.112ZM67.7541 23.12V21.52H73.4501V23.12H67.7541ZM79.4061 30.112C78.4568 30.112 77.6248 29.9253 76.9101 29.552C76.2061 29.168 75.6568 28.6453 75.2621 27.984C74.8781 27.3227 74.6861 26.5707 74.6861 25.728C74.6861 24.8747 74.8728 24.1227 75.2461 23.472C75.6301 22.8107 76.1528 22.2933 76.8141 21.92C77.4861 21.5467 78.2488 21.36 79.1021 21.36C79.9341 21.36 80.6755 21.5413 81.3261 21.904C81.9768 22.2667 82.4888 22.7787 82.8621 23.44C83.2355 24.1013 83.4221 24.88 83.4221 25.776C83.4221 25.8613 83.4168 25.9573 83.4061 26.064C83.4061 26.1707 83.4008 26.272 83.3901 26.368H76.2701V25.04H82.3341L81.5501 25.456C81.5608 24.9653 81.4595 24.5333 81.2461 24.16C81.0328 23.7867 80.7395 23.4933 80.3661 23.28C80.0035 23.0667 79.5821 22.96 79.1021 22.96C78.6115 22.96 78.1795 23.0667 77.8061 23.28C77.4435 23.4933 77.1555 23.792 76.9421 24.176C76.7395 24.5493 76.6381 24.992 76.6381 25.504V25.824C76.6381 26.336 76.7555 26.7893 76.9901 27.184C77.2248 27.5787 77.5555 27.8827 77.9821 28.096C78.4088 28.3093 78.8995 28.416 79.4541 28.416C79.9341 28.416 80.3661 28.3413 80.7501 28.192C81.1341 28.0427 81.4755 27.808 81.7741 27.488L82.8461 28.72C82.4621 29.168 81.9768 29.5147 81.3901 29.76C80.8141 29.9947 80.1528 30.112 79.4061 30.112ZM89.2633 30.112C88.3673 30.112 87.5673 29.9253 86.8633 29.552C86.1699 29.168 85.6259 28.6453 85.2313 27.984C84.8366 27.3227 84.6393 26.5707 84.6393 25.728C84.6393 24.8747 84.8366 24.1227 85.2313 23.472C85.6259 22.8107 86.1699 22.2933 86.8633 21.92C87.5673 21.5467 88.3673 21.36 89.2633 21.36C90.0953 21.36 90.8259 21.5307 91.4553 21.872C92.0953 22.2027 92.5806 22.6933 92.9113 23.344L91.3753 24.24C91.1193 23.8347 90.8046 23.536 90.4313 23.344C90.0686 23.152 89.6739 23.056 89.2473 23.056C88.7566 23.056 88.3139 23.1627 87.9193 23.376C87.5246 23.5893 87.2153 23.8987 86.9913 24.304C86.7673 24.6987 86.6553 25.1733 86.6553 25.728C86.6553 26.2827 86.7673 26.7627 86.9913 27.168C87.2153 27.5627 87.5246 27.8667 87.9193 28.08C88.3139 28.2933 88.7566 28.4 89.2473 28.4C89.6739 28.4 90.0686 28.304 90.4313 28.112C90.8046 27.92 91.1193 27.6213 91.3753 27.216L92.9113 28.112C92.5806 28.752 92.0953 29.248 91.4553 29.6C90.8259 29.9413 90.0953 30.112 89.2633 30.112ZM93.858 30V28.736L99.122 22.368L99.49 23.056H93.954V21.456H101.09V22.72L95.826 29.088L95.426 28.4H101.234V30H93.858Z" fill="#0B36DB"/>
</svg>
