<svg width="118" height="48" viewBox="0 0 118 48" fill="none" xmlns="http://www.w3.org/2000/svg">
<path d="M2.57747e-07 24.0001C2.69173e-07 24.2615 0.109885 24.5108 0.302801 24.6872L5.73384 29.6527C6.11333 29.9997 6.70224 29.9733 7.0492 29.5938C7.39616 29.2143 7.36979 28.6254 6.9903 28.2785L3.32914 24.9311L17.069 24.9311C17.5832 24.9311 18 24.5143 18 24.0001C18 23.4859 17.5832 23.069 17.069 23.069L3.32914 23.069L6.9903 19.7217C7.36979 19.3747 7.39616 18.7858 7.0492 18.4063C6.70224 18.0268 6.11333 18.0005 5.73384 18.3474L0.302801 23.3129C0.109884 23.4893 2.46321e-07 23.7387 2.57747e-07 24.0001Z" fill="#0B36DB"/>
<path d="M38.144 30L34.432 18.8H36.592L39.904 28.928H38.832L42.272 18.8H44.192L47.536 28.928H46.496L49.888 18.8H51.872L48.16 30H45.952L42.896 20.864H43.472L40.368 30H38.144ZM55.2958 30.112C54.5811 30.112 53.8931 30.0213 53.2318 29.84C52.5811 29.648 52.0638 29.4187 51.6798 29.152L52.4478 27.632C52.8318 27.8773 53.2904 28.08 53.8238 28.24C54.3571 28.4 54.8904 28.48 55.4238 28.48C56.0531 28.48 56.5064 28.3947 56.7838 28.224C57.0718 28.0533 57.2158 27.824 57.2158 27.536C57.2158 27.3013 57.1198 27.1253 56.9278 27.008C56.7358 26.88 56.4851 26.784 56.1758 26.72C55.8664 26.656 55.5198 26.5973 55.1358 26.544C54.7624 26.4907 54.3838 26.4213 53.9998 26.336C53.6264 26.24 53.2851 26.1067 52.9758 25.936C52.6664 25.7547 52.4158 25.5147 52.2238 25.216C52.0318 24.9173 51.9358 24.5227 51.9358 24.032C51.9358 23.488 52.0904 23.0187 52.3997 22.624C52.7091 22.2187 53.1411 21.9093 53.6957 21.696C54.2611 21.472 54.9278 21.36 55.6958 21.36C56.2718 21.36 56.8531 21.424 57.4398 21.552C58.0264 21.68 58.5118 21.8613 58.8958 22.096L58.1278 23.616C57.7224 23.3707 57.3118 23.2053 56.8958 23.12C56.4904 23.024 56.0851 22.976 55.6798 22.976C55.0718 22.976 54.6184 23.0667 54.3198 23.248C54.0318 23.4293 53.8878 23.6587 53.8878 23.936C53.8878 24.192 53.9838 24.384 54.1758 24.512C54.3678 24.64 54.6184 24.7413 54.9278 24.816C55.2371 24.8907 55.5784 24.9547 55.9518 25.008C56.3358 25.0507 56.7144 25.12 57.0878 25.216C57.4611 25.312 57.8024 25.4453 58.1118 25.616C58.4318 25.776 58.6878 26.0053 58.8798 26.304C59.0718 26.6027 59.1678 26.992 59.1678 27.472C59.1678 28.0053 59.0078 28.4693 58.6878 28.864C58.3784 29.2587 57.9358 29.568 57.3598 29.792C56.7838 30.0053 56.0958 30.112 55.2958 30.112ZM64.1061 30.112C63.1675 30.112 62.4421 29.872 61.9301 29.392C61.4181 28.9013 61.1621 28.1813 61.1621 27.232V19.568H63.1621V27.184C63.1621 27.5893 63.2635 27.904 63.4661 28.128C63.6795 28.352 63.9728 28.464 64.3461 28.464C64.7941 28.464 65.1675 28.3467 65.4661 28.112L66.0261 29.536C65.7915 29.728 65.5035 29.872 65.1621 29.968C64.8208 30.064 64.4688 30.112 64.1061 30.112ZM59.7541 23.12V21.52H65.4501V23.12H59.7541ZM71.4061 30.112C70.4568 30.112 69.6248 29.9253 68.9101 29.552C68.2061 29.168 67.6568 28.6453 67.2621 27.984C66.8781 27.3227 66.6861 26.5707 66.6861 25.728C66.6861 24.8747 66.8728 24.1227 67.2461 23.472C67.6301 22.8107 68.1528 22.2933 68.8141 21.92C69.4861 21.5467 70.2488 21.36 71.1021 21.36C71.9341 21.36 72.6755 21.5413 73.3261 21.904C73.9768 22.2667 74.4888 22.7787 74.8621 23.44C75.2355 24.1013 75.4221 24.88 75.4221 25.776C75.4221 25.8613 75.4168 25.9573 75.4061 26.064C75.4061 26.1707 75.4008 26.272 75.3901 26.368H68.2701V25.04H74.3341L73.5501 25.456C73.5608 24.9653 73.4595 24.5333 73.2461 24.16C73.0328 23.7867 72.7395 23.4933 72.3661 23.28C72.0035 23.0667 71.5821 22.96 71.1021 22.96C70.6115 22.96 70.1795 23.0667 69.8061 23.28C69.4435 23.4933 69.1555 23.792 68.9421 24.176C68.7395 24.5493 68.6381 24.992 68.6381 25.504V25.824C68.6381 26.336 68.7555 26.7893 68.9901 27.184C69.2248 27.5787 69.5555 27.8827 69.9821 28.096C70.4088 28.3093 70.8995 28.416 71.4541 28.416C71.9341 28.416 72.3661 28.3413 72.7501 28.192C73.1341 28.0427 73.4755 27.808 73.7741 27.488L74.8461 28.72C74.4621 29.168 73.9768 29.5147 73.3901 29.76C72.8141 29.9947 72.1528 30.112 71.4061 30.112ZM81.2633 30.112C80.3673 30.112 79.5673 29.9253 78.8633 29.552C78.1699 29.168 77.6259 28.6453 77.2313 27.984C76.8366 27.3227 76.6393 26.5707 76.6393 25.728C76.6393 24.8747 76.8366 24.1227 77.2313 23.472C77.6259 22.8107 78.1699 22.2933 78.8633 21.92C79.5673 21.5467 80.3673 21.36 81.2633 21.36C82.0953 21.36 82.8259 21.5307 83.4553 21.872C84.0953 22.2027 84.5806 22.6933 84.9113 23.344L83.3753 24.24C83.1193 23.8347 82.8046 23.536 82.4313 23.344C82.0686 23.152 81.6739 23.056 81.2473 23.056C80.7566 23.056 80.3139 23.1627 79.9193 23.376C79.5246 23.5893 79.2153 23.8987 78.9913 24.304C78.7673 24.6987 78.6553 25.1733 78.6553 25.728C78.6553 26.2827 78.7673 26.7627 78.9913 27.168C79.2153 27.5627 79.5246 27.8667 79.9193 28.08C80.3139 28.2933 80.7566 28.4 81.2473 28.4C81.6739 28.4 82.0686 28.304 82.4313 28.112C82.8046 27.92 83.1193 27.6213 83.3753 27.216L84.9113 28.112C84.5806 28.752 84.0953 29.248 83.4553 29.6C82.8259 29.9413 82.0953 30.112 81.2633 30.112ZM85.858 30V28.736L91.122 22.368L91.49 23.056H85.954V21.456H93.09V22.72L87.826 29.088L87.426 28.4H93.234V30H85.858Z" fill="#0B36DB"/>
</svg>
