<svg width="288" height="48" viewBox="0 0 288 48" fill="none" xmlns="http://www.w3.org/2000/svg">
<rect width="288" height="48" fill="#EEEEEE"/>
<rect x="-1030" y="-1395" width="58271" height="4708" fill="#E4E4E4"/>
<g clip-path="url(#clip0_1516_138129)">
<rect width="1440" height="1983" transform="translate(-212 -625)" fill="white"/>
<rect width="288" height="48" rx="24" fill="#5A38FD"/>
<path d="M223.5 24.0001C223.5 24.2615 223.39 24.5108 223.197 24.6872L217.766 29.6527C217.387 29.9997 216.798 29.9733 216.451 29.5938C216.104 29.2143 216.13 28.6254 216.51 28.2785L220.171 24.9311L206.431 24.9311C205.917 24.9311 205.5 24.5143 205.5 24.0001C205.5 23.4859 205.917 23.069 206.431 23.069L220.171 23.069L216.51 19.7217C216.13 19.3747 216.104 18.7858 216.451 18.4063C216.798 18.0268 217.387 18.0005 217.766 18.3474L223.197 23.3129C223.39 23.4893 223.5 23.7387 223.5 24.0001Z" fill="white"/>
</g>
<defs>
<clipPath id="clip0_1516_138129">
<rect width="1440" height="1983" fill="white" transform="translate(-212 -625)"/>
</clipPath>
</defs>
</svg>
